<svg width="21" height="21" viewBox="0 0 21 21" fill="none" xmlns="http://www.w3.org/2000/svg">
<path d="M13.8333 13.1667V14.5729L14.5833 15.4167M7.99992 9.66667H3.83325M17.1666 8V6.33333C17.1666 5.41286 16.4204 4.66667 15.4999 4.66667H5.49992C4.57944 4.66667 3.83325 5.41286 3.83325 6.33333V16.3333C3.83325 17.2538 4.57944 18 5.49992 18H7.99992M12.9999 3V6.33333M7.99992 3V6.33333M17.5833 14.6667C17.5833 16.7377 15.9043 18.4167 13.8333 18.4167C11.7622 18.4167 10.0833 16.7377 10.0833 14.6667C10.0833 12.5956 11.7622 10.9167 13.8333 10.9167C15.9043 10.9167 17.5833 12.5956 17.5833 14.6667Z" stroke="#FCAC62" stroke-width="1.5" stroke-linecap="round" stroke-linejoin="round"/>
</svg>
