<svg width="54" height="50" viewBox="0 0 54 50" fill="none" xmlns="http://www.w3.org/2000/svg">
<path d="M52.3009 2.54309C51.777 2.54309 51.352 2.96812 51.352 3.49202V6.33872H47.84V2.22677C47.84 1.70287 47.4149 1.27784 46.891 1.27784C46.3671 1.27784 45.9421 1.70287 45.9421 2.22677V6.33862H36.3439V0.961633C36.3439 0.437727 35.9195 0.0126953 35.395 0.0126953C34.8711 0.0126953 34.446 0.437727 34.446 0.961633V6.33872H29.5273C29.0034 6.33872 28.5784 6.76376 28.5784 7.28766C28.5784 7.81157 29.0034 8.2366 29.5273 8.2366H34.446V12.6648C34.446 12.6648 30.5355 12.692 30.4219 12.7401C29.7121 12.9137 29.1727 13.5296 29.1727 14.2968V27.7876H28.482C27.9576 27.7876 27.5331 28.2126 27.5331 28.7365V37.2049H22.7025V34.4885C22.9843 34.3581 23.2344 34.2333 23.4272 34.1184C23.9733 33.7886 24.4199 33.4821 24.8326 33.1535C24.995 33.0238 25.1106 32.8447 25.1613 32.6433L26.6501 26.7313C26.7019 26.5249 26.6835 26.3062 26.5969 26.1123C26.3727 25.6107 26.1064 25.1152 25.8155 24.6074C25.674 24.3714 25.3157 23.8586 23.8442 22.1537C22.6617 20.781 20.9481 19.9545 19.1412 19.8865C19.1412 19.8865 8.9855 18.9617 4.98139 19.9581C4.04711 20.1906 3.25655 20.7711 3.01931 21.7063L1.94197 25.9652C1.72694 26.814 1.99884 27.7036 2.64995 28.2868C3.06514 28.6575 3.63345 29.1504 4.18514 29.6249V37.2265C3.30106 37.2802 2.44673 37.6467 1.81597 38.2761C1.19822 38.8939 0.819562 39.7266 0.754594 40.5952C0.748469 40.6397 0.748469 42.493 0.754594 42.5375C0.819453 43.406 1.19811 44.2388 1.81652 44.8577C2.43984 45.4792 3.28247 45.8424 4.15659 45.903C4.43397 48.1974 6.37067 49.9878 8.73853 49.9878C11.0984 49.9878 13.0302 48.2104 13.3186 45.9278H28.5874C28.8759 48.2104 30.8076 49.9878 33.1674 49.9878C34.4246 49.9878 35.5625 49.4812 36.399 48.6664L51.63 48.7226C52.5233 48.7226 53.2498 47.9962 53.2498 47.1029V3.49202C53.2499 2.96812 52.8248 2.54309 52.3009 2.54309ZM51.3521 8.23649V16.5108H47.8345L47.8401 8.23649H51.3521ZM45.9423 8.23649V12.6646H36.3441V8.23649H45.9423ZM37.5913 44.0299C37.0186 42.1172 35.2636 40.7112 33.1675 40.7112C31.6305 40.7112 30.2751 41.4711 29.4313 42.6263V36.4523H38.6434V43.6245C38.6434 43.8482 38.4617 44.0298 38.2387 44.0298H37.5913V44.0299ZM29.4313 34.5545V29.6852H33.1095C34.1417 29.6852 35.1024 30.1931 35.68 31.0431C36.446 32.1699 37.4054 33.5877 38.0583 34.5545H29.4313ZM20.8048 37.2048H6.0828V31.2297C6.13409 31.2668 15.0744 35.3354 15.0744 35.3354C15.9294 35.7222 16.8375 35.9186 17.7728 35.9186C18.4721 35.9186 19.1627 35.8074 19.825 35.585C20.1777 35.4677 20.4952 35.3552 20.8048 35.2447V37.2048ZM24.1778 25.5661C24.373 25.9071 24.5602 26.2481 24.7276 26.5941L23.4019 31.86C21.1878 33.3669 18.5494 33.9536 18.2027 33.9863L21.0432 22.326C21.5548 22.5947 22.0236 22.9474 22.4072 23.3928C23.8306 25.0422 24.129 25.4845 24.1778 25.5661ZM3.78155 26.4297L4.85889 22.1721C4.90461 21.9941 5.05041 21.8632 5.22956 21.8385C6.49787 21.6729 8.64392 21.4468 9.0474 21.4048C9.0474 21.4048 19.167 21.7995 19.2171 21.8026L16.3055 33.7552C16.1567 33.7052 7.14526 29.6569 7.14526 29.6569C6.69989 29.2788 4.88361 27.737 3.91433 26.872C3.78964 26.7596 3.7402 26.594 3.78155 26.4297ZM8.73853 48.0898C7.22751 48.0898 5.99814 46.8604 5.99814 45.3494C5.99814 43.8384 7.22751 42.609 8.73853 42.609C10.2495 42.609 11.4796 43.8384 11.4796 45.3494C11.4796 46.8604 10.2497 48.0898 8.73853 48.0898ZM8.73853 40.7112C6.64859 40.7112 4.89783 42.1098 4.31967 44.0138C3.8872 43.9928 3.46589 43.8223 3.15767 43.5146C2.8302 43.1872 2.64241 42.7338 2.64241 42.2717V40.8607C2.64241 40.3986 2.8302 39.9452 3.15701 39.619C3.48569 39.2903 3.9385 39.1025 4.40061 39.1025H27.5335V44.0299H13.163C12.5903 42.1172 10.8346 40.7112 8.73853 40.7112ZM30.4271 45.3494C30.4271 43.8384 31.6565 42.609 33.1675 42.609C34.6786 42.609 35.9079 43.8384 35.9079 45.3494C35.9079 45.9424 35.714 46.4885 35.3921 46.9376C35.2223 47.0321 35.09 47.1835 35.0042 47.3688C34.5168 47.8123 33.8761 48.0897 33.1675 48.0897C31.6564 48.0898 30.4271 46.8605 30.4271 45.3494ZM51.3521 46.8246H37.5432C37.6408 46.5368 37.7081 46.2377 37.7477 45.9277H38.2388C39.5083 45.9277 40.5413 44.8947 40.5413 43.6247V35.1304C40.5413 34.9414 40.4844 34.756 40.3788 34.5991C40.3788 34.5991 38.5366 31.8698 37.2498 29.977C36.3188 28.6055 34.7714 27.7876 33.1096 27.7876H31.0708V14.5624H35.8536H45.9367V18.4086H51.3521V46.8246Z" fill="white"/>
</svg>
