<svg width="20" height="21" viewBox="0 0 20 21" fill="none" xmlns="http://www.w3.org/2000/svg">
<path d="M9.16667 3H10.8333C11.2936 3 11.6667 3.3731 11.6667 3.83333V4.30732C11.6667 4.66382 11.9059 4.97354 12.2352 5.11024C12.5646 5.24699 12.9481 5.19487 13.2002 4.94269L13.5355 4.60742C13.8609 4.28199 14.3886 4.28199 14.714 4.60742L15.8925 5.78594C16.218 6.11137 16.218 6.63901 15.8925 6.96445L15.5573 7.29967C15.3051 7.55186 15.253 7.93539 15.3897 8.26479C15.5265 8.59406 15.8362 8.83333 16.1927 8.83333L16.6667 8.83333C17.1269 8.83333 17.5 9.20643 17.5 9.66667V11.3333C17.5 11.7936 17.1269 12.1667 16.6667 12.1667H16.1927C15.8362 12.1667 15.5265 12.4059 15.3898 12.7352C15.253 13.0646 15.3051 13.4481 15.5573 13.7003L15.8925 14.0355C16.218 14.361 16.218 14.8886 15.8925 15.214L14.714 16.3925C14.3886 16.718 13.861 16.718 13.5355 16.3925L13.2003 16.0573C12.9481 15.8051 12.5646 15.753 12.2352 15.8898C11.9059 16.0265 11.6667 16.3362 11.6667 16.6927V17.1667C11.6667 17.6269 11.2936 18 10.8333 18H9.16667C8.70643 18 8.33333 17.6269 8.33333 17.1667V16.6927C8.33333 16.3362 8.09406 16.0265 7.76479 15.8897C7.43539 15.753 7.05186 15.8051 6.79966 16.0573L6.46443 16.3925C6.139 16.718 5.61136 16.718 5.28592 16.3925L4.10741 15.214C3.78197 14.8886 3.78197 14.361 4.10741 14.0355L4.44269 13.7002C4.69487 13.4481 4.74699 13.0646 4.61024 12.7352C4.47354 12.4059 4.16382 12.1667 3.80732 12.1667H3.33333C2.8731 12.1667 2.5 11.7936 2.5 11.3333V9.66667C2.5 9.20643 2.8731 8.83333 3.33333 8.83333L3.80731 8.83333C4.16382 8.83333 4.47354 8.59406 4.61024 8.2648C4.747 7.93542 4.69488 7.5519 4.44269 7.29972L4.10742 6.96445C3.78199 6.63901 3.78199 6.11137 4.10742 5.78594L5.28594 4.60743C5.61137 4.28199 6.13901 4.28199 6.46445 4.60743L6.79971 4.94269C7.0519 5.19488 7.43542 5.247 7.7648 5.11024C8.09406 4.97354 8.33333 4.66381 8.33333 4.3073V3.83333C8.33333 3.3731 8.70643 3 9.16667 3Z" stroke="#FCAC62" stroke-width="1.5"/>
<path d="M11.6667 10.5C11.6667 11.4205 10.9205 12.1667 10 12.1667C9.07953 12.1667 8.33333 11.4205 8.33333 10.5C8.33333 9.57953 9.07953 8.83333 10 8.83333C10.9205 8.83333 11.6667 9.57953 11.6667 10.5Z" stroke="#FCAC62" stroke-width="1.5"/>
</svg>
